<svg xmlns="http://www.w3.org/2000/svg" width="16" height="15" viewBox="0 0 16 15">
    <g fill="#28A7EB" fill-rule="evenodd">
        <path d="M5.715 6.04c0-.34-.275-.614-.616-.614l-2.728.01C3.16 3.001 5.461 1.308 8.033 1.3h.02c2.872 0 5.342 2.044 5.871 4.868.053.295.312.502.603.502.037 0 .078-.004.115-.01.332-.063.554-.384.492-.719C14.494 2.536 11.52.07 8.054.07h-.025c-2.847.01-5.424 1.735-6.56 4.29L1.46 2.054c0-.339-.28-.613-.616-.613H.841c-.336.001-.611.278-.611.617l.012 4c0 .164.066.32.18.435.115.115.271.179.435.179l4.247-.014c.34-.001.615-.278.61-.617M15.848 8.807c-.004-.34-.279-.614-.615-.614h-.004l-4.242.014c-.34.001-.616.278-.616.617.004.34.28.614.616.614h.004l2.769-.01c-.755 2.495-3.06 4.223-5.69 4.232h-.017c-2.584 0-5.202-2.034-5.723-4.448-.074-.333-.402-.543-.73-.472-.332.071-.546.399-.472.73.644 2.993 3.75 5.42 6.925 5.42h.02c2.864-.009 5.408-1.704 6.549-4.243l.008 2.164c0 .339.275.613.615.613.34-.001.616-.278.616-.617l-.013-4"/>
    </g>
</svg>
